<svg width="14" height="14" viewBox="0 0 14 14" fill="none" xmlns="http://www.w3.org/2000/svg">
<path d="M10.0625 1.75H3.9375C3.70544 1.75 3.48288 1.84219 3.31878 2.00628C3.15469 2.17038 3.0625 2.39294 3.0625 2.625V12.25C3.06254 12.3281 3.08347 12.4047 3.12313 12.472C3.16278 12.5392 3.21971 12.5947 3.28801 12.6325C3.35631 12.6703 3.43349 12.6892 3.51154 12.6871C3.58959 12.6851 3.66567 12.6622 3.73187 12.6208L7 10.5782L10.2687 12.6208C10.3349 12.662 10.4109 12.6848 10.4889 12.6868C10.5668 12.6888 10.6439 12.6699 10.7121 12.6321C10.7803 12.5943 10.8372 12.5389 10.8768 12.4717C10.9165 12.4045 10.9374 12.328 10.9375 12.25V2.625C10.9375 2.39294 10.8453 2.17038 10.6812 2.00628C10.5171 1.84219 10.2946 1.75 10.0625 1.75Z" fill="black"/>
</svg>
