<svg width="15" height="14" viewBox="0 0 15 14" fill="none" xmlns="http://www.w3.org/2000/svg">
<path d="M13.497 6.43451L9.12203 10.8095C9.06084 10.8708 8.98286 10.9125 8.89794 10.9294C8.81303 10.9463 8.72501 10.9376 8.64503 10.9045C8.56504 10.8714 8.49669 10.8152 8.44862 10.7432C8.40055 10.6712 8.37493 10.5866 8.375 10.5V8.32506C5.25234 8.50224 3.11133 10.5273 2.51031 11.1688C2.41594 11.2696 2.29218 11.338 2.15665 11.3644C2.02112 11.3908 1.88072 11.3738 1.75543 11.3157C1.63015 11.2577 1.52636 11.1616 1.45885 11.0412C1.39133 10.9207 1.36352 10.7821 1.37937 10.6449C1.58226 8.88068 2.54859 7.18373 4.10062 5.86685C5.38961 4.7731 6.9564 4.07912 8.375 3.95771V1.74998C8.37493 1.6634 8.40055 1.57875 8.44862 1.50674C8.49669 1.43473 8.56504 1.3786 8.64503 1.34546C8.72501 1.31231 8.81303 1.30365 8.89794 1.32056C8.98286 1.33747 9.06084 1.37919 9.12203 1.44045L13.497 5.81545C13.5377 5.85608 13.57 5.90433 13.592 5.95744C13.614 6.01055 13.6253 6.06748 13.6253 6.12498C13.6253 6.18247 13.614 6.2394 13.592 6.29251C13.57 6.34563 13.5377 6.39388 13.497 6.43451Z" fill="black"/>
</svg>
