<svg width="38" height="38" viewBox="0 0 38 38" fill="none" xmlns="http://www.w3.org/2000/svg">
<rect width="38" height="38" rx="10" fill="white" fill-opacity="0.2"/>
<path d="M24.0306 22.9694C24.1715 23.1103 24.2507 23.3014 24.2507 23.5006C24.2507 23.6999 24.1715 23.891 24.0306 24.0319C23.8897 24.1728 23.6986 24.2519 23.4994 24.2519C23.3001 24.2519 23.109 24.1728 22.9681 24.0319L19 20.0625L15.0306 24.0306C14.8897 24.1715 14.6986 24.2507 14.4994 24.2507C14.3001 24.2507 14.109 24.1715 13.9681 24.0306C13.8272 23.8897 13.7481 23.6986 13.7481 23.4994C13.7481 23.3001 13.8272 23.109 13.9681 22.9681L17.9375 19L13.9694 15.0306C13.8285 14.8897 13.7493 14.6986 13.7493 14.4994C13.7493 14.3001 13.8285 14.109 13.9694 13.9681C14.1103 13.8272 14.3014 13.7481 14.5006 13.7481C14.6999 13.7481 14.891 13.8272 15.0319 13.9681L19 17.9375L22.9694 13.9675C23.1103 13.8266 23.3014 13.7474 23.5006 13.7474C23.6999 13.7474 23.891 13.8266 24.0319 13.9675C24.1728 14.1084 24.2519 14.2995 24.2519 14.4987C24.2519 14.698 24.1728 14.8891 24.0319 15.03L20.0625 19L24.0306 22.9694Z" fill="white"/>
</svg>
